<svg viewBox="-12.8 -12.8 153.60 153.60" xmlns="http://www.w3.org/2000/svg" aria-hidden="true" role="img" class="iconify iconify--noto" preserveAspectRatio="xMidYMid meet" fill="#e26408" stroke="#e26408"><g id="SVGRepo_bgCarrier" stroke-width="0" transform="translate(0,0), scale(1)"><path transform="translate(-12.8, -12.8), scale(4.8)" d="M16,28.163544832679786C18.138495176042873,28.592466418587815,20.25508035320164,27.65658740934858,22.31337165705075,26.93508047707722C24.740314042526663,26.084347759084633,27.7800120484846,25.770211810985323,29.108862806962506,23.56840547036968C30.435469610573147,21.370317195175062,29.01886680818437,18.565203421419625,28.912993848127755,16C28.81191669717488,13.550994575829257,29.461140367857322,11.038107333889293,28.498665510281747,8.783892103127746C27.48819070225884,6.4172560454505465,25.799769605543077,4.129575943661776,23.423274363636192,3.1425116436586027C21.094241529757717,2.1751605952247592,18.4250033355623,2.900165332944381,16,3.592639747418856C13.976855579086997,4.170360910818485,12.633044224748687,6.004424819843345,10.677988332255108,6.782005392991467C8.272059035487066,7.738910967260563,5.197010885180038,6.917993616533271,3.275524464701153,8.653520624398395C1.2967232863181608,10.44081552884175,0.12698669837119486,13.355980827261535,0.4722978525648003,15.999999999999996C0.8151217313843212,18.624974309295464,3.016186673403081,20.63363130994966,5.0598917419328195,22.316274447758722C6.731453623206649,23.692521036495748,9.087481316727725,23.6447173370443,10.997058713710619,24.66534849513719C12.82279510874589,25.641168304368986,13.970270422940743,27.756438546488553,16,28.163544832679786" fill="#15181b"></path></g><g id="SVGRepo_tracerCarrier" stroke-linecap="round" stroke-linejoin="round" stroke="#CCCCCC" stroke-width="0.512"></g><g id="SVGRepo_iconCarrier"><path d="M127.29 16.43a2.42 2.42 0 0 0-1.87-.91h-24.79c-1.14 0-2.12.8-2.33 1.92l-9.58 48.68l-13.47-48.86c-.08-.29-.22-.54-.39-.77c-.01-.01-.01-.04-.03-.05c-.03-.04-.08-.05-.11-.09c-.17-.2-.37-.36-.6-.49c-.08-.04-.15-.09-.23-.12c-.29-.13-.6-.22-.94-.22H55.04c-.33 0-.65.09-.94.22c-.08.04-.15.08-.23.12c-.23.13-.43.29-.6.49c-.04.04-.08.05-.11.09c-.01.02-.01.04-.03.05c-.17.23-.31.49-.39.77L39.29 66.12L29.7 17.44a2.386 2.386 0 0 0-2.33-1.92H2.59c-.73 0-1.43.34-1.87.91c-.46.57-.62 1.33-.45 2.03l24.79 100.45c.01.03.04.06.04.1c.06.19.13.36.23.53c.03.05.05.1.09.15c.02.03.03.06.06.09c.12.16.25.29.41.42c.02.02.05.03.08.05c.16.12.34.22.53.29c.05.02.11.04.17.06c.22.07.46.12.7.12h19.78c.33 0 .63-.08.92-.21c.08-.04.15-.08.23-.12c.2-.12.39-.26.55-.44c.04-.04.1-.06.14-.1c.02-.03.02-.06.04-.09c.19-.25.34-.52.42-.83L64 62.33l14.55 56.61c.08.31.23.58.42.83c.02.03.02.06.05.09c.03.04.09.06.13.1c.16.18.34.32.55.44c.08.04.15.09.23.12c.29.12.59.21.92.21h19.78c.24 0 .47-.05.7-.12c.06-.02.11-.04.18-.06c.18-.07.36-.17.53-.29c.03-.02.05-.03.08-.05c.15-.12.29-.26.41-.42c.02-.03.03-.06.06-.09c.03-.05.05-.1.09-.15c.09-.17.17-.34.23-.53c.01-.03.04-.06.04-.1l24.79-100.45c.16-.71 0-1.47-.45-2.04z" fill="#e26408"></path></g></svg>
